<svg width="20" height="20" viewBox="0 0 20 20" fill="none" xmlns="http://www.w3.org/2000/svg">
<path d="M3.33334 17.5V18.75C3.33334 19.1042 3.22667 19.4012 3.01334 19.6412C2.8 19.8812 2.5363 20.0008 2.22223 20H1.11111C0.7963 20 0.532226 19.88 0.318893 19.64C0.105559 19.4 -0.000736896 19.1033 3.84468e-06 18.75V8.75L2.33334 1.25C2.44445 0.875 2.64334 0.572917 2.93 0.34375C3.21667 0.114583 3.5363 0 3.88889 0H16.1111C16.463 0 16.7826 0.114583 17.07 0.34375C17.3574 0.572917 17.5563 0.875 17.6667 1.25L20 8.75V18.75C20 19.1042 19.8937 19.4012 19.6811 19.6412C19.4685 19.8812 19.2044 20.0008 18.8889 20H17.7778C17.463 20 17.1989 19.88 16.9856 19.64C16.7722 19.4 16.6659 19.1033 16.6667 18.75V17.5H3.33334ZM3.11111 6.25H16.8889L15.7222 2.5H4.27778L3.11111 6.25ZM5 13.75C5.46297 13.75 5.85667 13.5675 6.18111 13.2025C6.50556 12.8375 6.66741 12.395 6.66667 11.875C6.66667 11.3542 6.50445 10.9112 6.18 10.5462C5.85556 10.1812 5.46222 9.99916 5 10C4.53704 10 4.14334 10.1825 3.81889 10.5475C3.49445 10.9125 3.3326 11.355 3.33334 11.875C3.33334 12.3958 3.49556 12.8387 3.82 13.2037C4.14445 13.5687 4.53778 13.7508 5 13.75ZM15 13.75C15.463 13.75 15.8567 13.5675 16.1811 13.2025C16.5056 12.8375 16.6674 12.395 16.6667 11.875C16.6667 11.3542 16.5044 10.9112 16.18 10.5462C15.8556 10.1812 15.4622 9.99916 15 10C14.537 10 14.1433 10.1825 13.8189 10.5475C13.4944 10.9125 13.3326 11.355 13.3333 11.875C13.3333 12.3958 13.4956 12.8387 13.82 13.2037C14.1444 13.5687 14.5378 13.7508 15 13.75Z" fill="black"/>
</svg>
