<svg width="20" height="20" viewBox="0 0 20 20" fill="none" xmlns="http://www.w3.org/2000/svg">
<path d="M10 10.1911C10.6875 10.1911 11.2762 9.99134 11.7663 9.59185C12.2563 9.19236 12.5008 8.7127 12.5 8.15287C12.5 7.59236 12.255 7.11236 11.765 6.71287C11.275 6.31338 10.6867 6.11397 10 6.11465C9.3125 6.11465 8.72375 6.3144 8.23375 6.71389C7.74375 7.11338 7.49917 7.59304 7.5 8.15287C7.5 8.71338 7.745 9.19338 8.235 9.59287C8.725 9.99236 9.31333 10.1918 10 10.1911ZM10 20C9.83333 20 9.66667 19.9745 9.5 19.9236C9.33333 19.8726 9.1875 19.8047 9.0625 19.7197C6.02083 17.5287 3.75 15.4945 2.25 13.6173C0.75 11.7401 0 9.98658 0 8.35669C0 5.80892 1.00542 3.77919 3.01625 2.26752C5.02708 0.755839 7.355 0 10 0C12.6458 0 14.9742 0.755839 16.985 2.26752C18.9958 3.77919 20.0008 5.80892 20 8.35669C20 9.98726 19.25 11.7411 17.75 13.6183C16.25 15.4955 13.9792 17.5293 10.9375 19.7197C10.8125 19.8047 10.6667 19.8726 10.5 19.9236C10.3333 19.9745 10.1667 20 10 20Z" fill="black"/>
</svg>
