<svg width="40" height="35" viewBox="0 0 40 35" fill="none" xmlns="http://www.w3.org/2000/svg">
<path d="M35.3778 2.19906C34.9333 0.914459 33.6889 0 32.2222 0H7.77778C6.31111 0 5.08889 0.914459 4.62222 2.19906L0 15.241V32.6592C0 33.8567 1 34.8365 2.22222 34.8365H4.44444C5.66667 34.8365 6.66667 33.8567 6.66667 32.6592V30.482H33.3333V32.6592C33.3333 33.8567 34.3333 34.8365 35.5556 34.8365H37.7778C39 34.8365 40 33.8567 40 32.6592V15.241L35.3778 2.19906ZM10 23.9501C8.15556 23.9501 6.66667 22.4913 6.66667 20.6842C6.66667 18.877 8.15556 17.4183 10 17.4183C11.8444 17.4183 13.3333 18.877 13.3333 20.6842C13.3333 22.4913 11.8444 23.9501 10 23.9501ZM30 23.9501C28.1556 23.9501 26.6667 22.4913 26.6667 20.6842C26.6667 18.877 28.1556 17.4183 30 17.4183C31.8444 17.4183 33.3333 18.877 33.3333 20.6842C33.3333 22.4913 31.8444 23.9501 30 23.9501ZM6.24444 10.8864L8.55556 4.35457H31.4222L33.7333 10.8864H6.24444Z" fill="#F8F7F7"/>
</svg>
