<svg width="40" height="35" viewBox="0 0 40 35" fill="none" xmlns="http://www.w3.org/2000/svg">
<path d="M34 3.48365H30V1.74183C30 1.27987 29.7893 0.836825 29.4142 0.510169C29.0391 0.183513 28.5304 0 28 0C27.4696 0 26.9609 0.183513 26.5858 0.510169C26.2107 0.836825 26 1.27987 26 1.74183V3.48365H14V1.74183C14 1.27987 13.7893 0.836825 13.4142 0.510169C13.0391 0.183513 12.5304 0 12 0C11.4696 0 10.9609 0.183513 10.5858 0.510169C10.2107 0.836825 10 1.27987 10 1.74183V3.48365H6C4.4087 3.48365 2.88258 4.03419 1.75736 5.01416C0.632141 5.99413 0 7.32325 0 8.70913V29.611C0 30.9969 0.632141 32.326 1.75736 33.306C2.88258 34.286 4.4087 34.8365 6 34.8365H34C35.5913 34.8365 37.1174 34.286 38.2426 33.306C39.3679 32.326 40 30.9969 40 29.611V8.70913C40 7.32325 39.3679 5.99413 38.2426 5.01416C37.1174 4.03419 35.5913 3.48365 34 3.48365ZM36 29.611C36 30.073 35.7893 30.516 35.4142 30.8427C35.0391 31.1694 34.5304 31.3529 34 31.3529H6C5.46957 31.3529 4.96086 31.1694 4.58579 30.8427C4.21071 30.516 4 30.073 4 29.611V17.4183H36V29.611ZM36 13.9346H4V8.70913C4 8.24717 4.21071 7.80413 4.58579 7.47747C4.96086 7.15082 5.46957 6.9673 6 6.9673H10V8.70913C10 9.17109 10.2107 9.61413 10.5858 9.94079C10.9609 10.2674 11.4696 10.451 12 10.451C12.5304 10.451 13.0391 10.2674 13.4142 9.94079C13.7893 9.61413 14 9.17109 14 8.70913V6.9673H26V8.70913C26 9.17109 26.2107 9.61413 26.5858 9.94079C26.9609 10.2674 27.4696 10.451 28 10.451C28.5304 10.451 29.0391 10.2674 29.4142 9.94079C29.7893 9.61413 30 9.17109 30 8.70913V6.9673H34C34.5304 6.9673 35.0391 7.15082 35.4142 7.47747C35.7893 7.80413 36 8.24717 36 8.70913V13.9346Z" fill="#F7EFEF"/>
</svg>
