<svg width="22" height="22" viewBox="0 0 22 22" fill="none" xmlns="http://www.w3.org/2000/svg">
<path d="M17 13.75V9.625H14V6.875H17V2.75H19V6.875H22V9.625H19V13.75H17ZM8 11C6.9 11 5.95833 10.4615 5.175 9.38437C4.39167 8.30729 4 7.0125 4 5.5C4 3.9875 4.39167 2.69271 5.175 1.61563C5.95833 0.538542 6.9 0 8 0C9.1 0 10.0417 0.538542 10.825 1.61563C11.6083 2.69271 12 3.9875 12 5.5C12 7.0125 11.6083 8.30729 10.825 9.38437C10.0417 10.4615 9.1 11 8 11ZM0 22V18.15C0 17.3708 0.146 16.6545 0.438 16.0009C0.73 15.3473 1.11733 14.8491 1.6 14.5063C2.63333 13.7958 3.68333 13.2628 4.75 12.9071C5.81667 12.5515 6.9 12.3741 8 12.375C9.1 12.375 10.1833 12.5528 11.25 12.9085C12.3167 13.2642 13.3667 13.7968 14.4 14.5063C14.8833 14.85 15.271 15.3487 15.563 16.0022C15.855 16.6558 16.0007 17.3718 16 18.15V22H0Z" fill="black"/>
</svg>
